<svg xmlns="http://www.w3.org/2000/svg" width="267" height="86" viewBox="0 0 267 86">
  <g id="Сгруппировать_2028" data-name="Сгруппировать 2028" transform="translate(-10835 -8548)">
    <rect id="Прямоугольник_2203" data-name="Прямоугольник 2203" width="267" height="86" rx="43" transform="translate(10835 8548)" fill="#605bff"/>
    <path id="_Path_" data-name="&lt;Path&gt;" d="M42.532,27.44a11.06,11.06,0,0,1,5.243-9.272,11.26,11.26,0,0,0-8.88-4.819c-3.736-.394-7.358,2.244-9.262,2.244-1.941,0-4.872-2.2-8.029-2.14a11.821,11.821,0,0,0-9.952,6.092c-4.3,7.478-1.093,18.467,3.029,24.512,2.062,2.96,4.473,6.266,7.626,6.149,3.086-.128,4.239-1.975,7.964-1.975,3.691,0,4.772,1.975,7.99,1.9,3.312-.054,5.4-2.973,7.388-5.961a24.517,24.517,0,0,0,3.378-6.906,10.68,10.68,0,0,1-6.5-9.824Z" transform="translate(10851.949 8562.327)" fill="#fff"/>
    <path id="_Path_2" data-name="&lt;Path&gt;" d="M26,15.642a10.908,10.908,0,0,0,2.48-7.8,11.017,11.017,0,0,0-7.137,3.706A10.378,10.378,0,0,0,18.8,19.06,9.107,9.107,0,0,0,26,15.642Z" transform="translate(10862.4 8556.059)" fill="#fff"/>
    <path id="Контур_515" data-name="Контур 515" d="M51.276,37.538H41.149l-2.432,7.208h-4.29l9.593-26.668h4.457l9.593,26.668H53.706ZM42.2,34.212h8.028l-3.957-11.7h-.111Z" transform="translate(10880.525 8567.8)" fill="#fff"/>
    <path id="Контур_516" data-name="Контур 516" d="M64.878,31.276c0,6.042-3.222,9.924-8.084,9.924A6.562,6.562,0,0,1,50.7,37.8h-.092v9.63H46.631V21.553H50.48v3.234h.073a6.866,6.866,0,0,1,6.168-3.437C61.637,21.35,64.878,25.25,64.878,31.276Zm-4.087,0c0-3.936-2.027-6.524-5.119-6.524-3.038,0-5.082,2.642-5.082,6.524,0,3.918,2.043,6.541,5.082,6.541,3.092,0,5.119-2.569,5.119-6.541Z" transform="translate(10894.434 8571.549)" fill="#fff"/>
    <path id="Контур_517" data-name="Контур 517" d="M74.844,31.276c0,6.042-3.223,9.924-8.085,9.924a6.562,6.562,0,0,1-6.095-3.4h-.092v9.63H56.6V21.553h3.849v3.234h.073a6.866,6.866,0,0,1,6.168-3.437C71.6,21.35,74.844,25.25,74.844,31.276Zm-4.088,0c0-3.936-2.027-6.524-5.119-6.524-3.038,0-5.082,2.642-5.082,6.524,0,3.918,2.043,6.541,5.082,6.541,3.092,0,5.119-2.569,5.119-6.541Z" transform="translate(10905.789 8571.549)" fill="#fff"/>
    <path id="Контур_518" data-name="Контур 518" d="M73.877,37.553c.295,2.645,2.854,4.381,6.352,4.381,3.351,0,5.763-1.736,5.763-4.121,0-2.07-1.454-3.309-4.9-4.159l-3.443-.833c-4.879-1.183-7.144-3.473-7.144-7.189,0-4.6,4-7.762,9.666-7.762,5.616,0,9.465,3.16,9.595,7.762H85.754c-.24-2.661-2.432-4.268-5.635-4.268s-5.395,1.625-5.395,3.991c0,1.885,1.4,2.995,4.825,3.844l2.927.721c5.451,1.294,7.714,3.492,7.714,7.393,0,4.989-3.957,8.114-10.255,8.114-5.892,0-9.871-3.051-10.128-7.875Z" transform="translate(10920.846 8567.562)" fill="#fff"/>
    <path id="Контур_519" data-name="Контур 519" d="M86.974,19.3v4.6h3.684v3.16H86.974V37.78c0,1.665.738,2.441,2.357,2.441a12.378,12.378,0,0,0,1.308-.092v3.142a10.88,10.88,0,0,1-2.209.185c-3.922,0-5.451-1.479-5.451-5.249V27.062H80.163V23.9h2.817V19.3Z" transform="translate(10932.646 8569.201)" fill="#fff"/>
    <path id="Контур_520" data-name="Контур 520" d="M86.064,31.293c0-6.117,3.59-9.962,9.187-9.962,5.616,0,9.189,3.844,9.189,9.962,0,6.134-3.554,9.962-9.189,9.962S86.064,37.427,86.064,31.293Zm14.325,0c0-4.2-1.916-6.673-5.138-6.673s-5.138,2.5-5.138,6.673c0,4.213,1.916,6.671,5.138,6.671s5.138-2.458,5.138-6.671Z" transform="translate(10939.371 8571.532)" fill="#fff"/>
    <path id="Контур_521" data-name="Контур 521" d="M96.185,21.553h3.792v3.309h.092a4.623,4.623,0,0,1,4.659-3.513,6.111,6.111,0,0,1,1.362.149v3.733a5.539,5.539,0,0,0-1.787-.241,4.015,4.015,0,0,0-4.143,4.473V41H96.185Z" transform="translate(10950.906 8571.55)" fill="#fff"/>
    <path id="Контур_522" data-name="Контур 522" d="M118.69,35.3c-.535,3.53-3.96,5.952-8.341,5.952-5.635,0-9.133-3.79-9.133-9.869,0-6.1,3.517-10.054,8.966-10.054,5.359,0,8.73,3.7,8.73,9.59v1.367H105.23v.241a5.056,5.056,0,0,0,5.211,5.507,4.381,4.381,0,0,0,4.474-2.735Zm-13.441-5.8h9.685a4.668,4.668,0,0,0-4.751-4.935,4.913,4.913,0,0,0-4.933,4.935Z" transform="translate(10956.639 8571.532)" fill="#fff"/>
    <path id="Контур_523" data-name="Контур 523" d="M38.322,14.332h1.707a2.147,2.147,0,0,0,2.407-2.043c0-1.182-.886-1.945-2.388-1.945a2.277,2.277,0,0,0-2.576,2.007H35.6A4.006,4.006,0,0,1,40.108,8.6c2.514,0,4.283,1.412,4.283,3.446a2.974,2.974,0,0,1-2.319,2.931v.151a2.98,2.98,0,0,1,2.84,3.1,4.268,4.268,0,0,1-4.768,3.81,4.247,4.247,0,0,1-4.8-3.792h1.9c.115,1.226,1.237,2.017,2.892,2.017s2.735-.888,2.735-2.14c0-1.27-1.018-2.052-2.8-2.052H38.322Z" transform="translate(10881.434 8556.861)" fill="#fff"/>
    <path id="Контур_524" data-name="Контур 524" d="M40.829,17.23c0-1.741,1.293-2.744,3.583-2.887l2.61-.151v-.835c0-1.021-.671-1.6-1.972-1.6-1.061,0-1.795.391-2.008,1.075H41.2c.194-1.661,1.753-2.726,3.939-2.726,2.415,0,3.778,1.207,3.778,3.25v6.607H47.085V18.606h-.15a3.238,3.238,0,0,1-2.894,1.518,2.914,2.914,0,0,1-3.211-2.894Zm6.193-.826V15.6l-2.353.151c-1.327.089-1.929.542-1.929,1.395,0,.87.752,1.377,1.787,1.377A2.274,2.274,0,0,0,47.022,16.4Z" transform="translate(10887.68 8558.626)" fill="#fff"/>
    <path id="Контур_525" data-name="Контур 525" d="M47.981,11.8v8.064h-1.9v-9.67h6.344V11.8Z" transform="translate(10893.662 8558.726)" fill="#fff"/>
    <path id="Контур_526" data-name="Контур 526" d="M59.222,15.112c0,3.072-1.548,5-3.98,5a3.138,3.138,0,0,1-2.965-1.624h-.15v4.68h-1.9V10.281h1.83v1.6H52.2a3.345,3.345,0,0,1,3.026-1.758C57.674,10.121,59.222,12.038,59.222,15.112Zm-1.956,0c0-2.043-.963-3.277-2.574-3.277s-2.6,1.26-2.6,3.285,1,3.277,2.593,3.277C56.3,18.4,57.266,17.163,57.266,15.112Z" transform="translate(10898.387 8558.639)" fill="#fff"/>
    <path id="Контур_527" data-name="Контур 527" d="M56.136,23.328V21.685a4.477,4.477,0,0,0,.62.036,1.649,1.649,0,0,0,1.743-1.35l.142-.471-3.487-9.706h2.071l2.415,7.681h.15L62.2,10.195h2.016l-3.592,10.07c-.823,2.353-1.734,3.108-3.7,3.108C56.765,23.373,56.314,23.355,56.136,23.328Z" transform="translate(10904.006 8558.726)" fill="#fff"/>
    <path id="Контур_528" data-name="Контур 528" d="M60.081,17.238h1.893c.186.853.982,1.3,2.1,1.3,1.266,0,2.043-.56,2.043-1.43,0-.932-.7-1.377-2.043-1.377H62.628V14.245h1.417c1.149,0,1.734-.444,1.734-1.252,0-.71-.566-1.252-1.734-1.252-1.064,0-1.841.453-1.964,1.216H60.248a3.378,3.378,0,0,1,3.8-2.832c2.29,0,3.6,1.039,3.6,2.673a1.985,1.985,0,0,1-1.521,1.98v.151A2.167,2.167,0,0,1,68.008,17.1c0,1.838-1.559,3.055-3.939,3.055C61.966,20.159,60.257,19.191,60.081,17.238Z" transform="translate(10909.619 8558.608)" fill="#fff"/>
    <path id="Контур_529" data-name="Контур 529" d="M65.066,19.865v-9.67h1.885v6.651h.15l4.44-6.651h1.885v9.67H71.541V13.178H71.4l-4.448,6.687Z" transform="translate(10915.301 8558.726)" fill="#fff"/>
    <path id="Контур_530" data-name="Контур 530" d="M78.071,11.8H75.037v8.064h-1.9V11.8H70.1V10.195h7.971Z" transform="translate(10921.037 8558.726)" fill="#fff"/>
    <path id="Контур_531" data-name="Контур 531" d="M83.23,17.354a3.916,3.916,0,0,1-4.177,2.8A4.386,4.386,0,0,1,74.6,15.16a4.454,4.454,0,0,1,4.442-5.052c2.681,0,4.3,1.838,4.3,4.875v.666h-6.8v.107a2.55,2.55,0,0,0,2.566,2.77,2.306,2.306,0,0,0,2.29-1.172Zm-6.688-3.116h4.864a2.329,2.329,0,0,0-2.369-2.505,2.466,2.466,0,0,0-2.495,2.505Z" transform="translate(10926.121 8558.626)" fill="#fff"/>
    <path id="Контур_532" data-name="Контур 532" d="M82.38,10.195h4.344c1.885,0,2.99.958,2.99,2.459A2.076,2.076,0,0,1,88.087,14.7v.151a2.2,2.2,0,0,1,2.06,2.229c0,1.687-1.264,2.788-3.379,2.788H82.38Zm1.885,1.465v2.5H86.15c1.149,0,1.7-.444,1.7-1.261,0-.754-.478-1.243-1.488-1.243Zm0,3.907V18.4H86.52c1.124,0,1.726-.5,1.726-1.412,0-.968-.681-1.421-1.964-1.421Z" transform="translate(10935.031 8558.726)" fill="#fff"/>
  </g>
</svg>
