<svg xmlns="http://www.w3.org/2000/svg" width="1920.003" height="1250.535" viewBox="0 0 1920.003 1250.535">
  <path id="Объединение_4" data-name="Объединение 4" d="M-10556.763,189.057c-40.5-.975-81.568-2.459-122.047-4.412-40.3-1.942-81.11-4.4-121.3-7.312-40.07-2.9-80.616-6.322-120.509-10.177-39.787-3.84-80.053-8.218-119.683-13.005-39.535-4.778-79.512-10.094-118.818-15.8-39.232-5.7-78.905-11.941-117.912-18.561-38.909-6.6-78.263-13.763-116.969-21.286v-723h0V-1060h.068c38.652,7.512,77.979,14.669,116.886,21.272,38.987,6.617,78.657,12.862,117.912,18.561,39.333,5.711,79.306,11.026,118.816,15.8,39.618,4.787,79.886,9.162,119.682,13.005,39.879,3.852,80.424,7.275,120.512,10.177,40.205,2.908,81.016,5.367,121.3,7.312,40.451,1.95,81.514,3.434,122.05,4.409,40.64.984,81.942,1.481,122.762,1.481s82.12-.5,122.76-1.481c40.536-.975,81.6-2.459,122.05-4.409,40.282-1.944,81.093-4.4,121.3-7.312,40.082-2.9,80.627-6.325,120.509-10.177,39.79-3.843,80.055-8.218,119.685-13.005,39.5-4.775,79.475-10.091,118.815-15.8,39.238-5.7,78.909-11.944,117.913-18.561,38.875-6.6,78.2-13.754,116.885-21.272h.1v723h0V98.5c-38.729,7.526-78.082,14.689-116.969,21.286-39.01,6.62-78.68,12.865-117.912,18.561-39.307,5.708-79.283,11.023-118.815,15.8-39.63,4.787-79.9,9.165-119.683,13.005-39.9,3.855-80.438,7.277-120.512,10.177-40.187,2.908-81,5.37-121.3,7.312-40.481,1.953-81.545,3.437-122.05,4.412-40.682.981-81.982,1.478-122.762,1.478S-10516.083,190.038-10556.763,189.057ZM-11394,98.5Z" transform="translate(11394.001 1060)" fill="#5551ff"/>
</svg>
