<svg id="Иконка_Входящие_лайки_" data-name="Иконка &quot;Входящие лайки&quot;" xmlns="http://www.w3.org/2000/svg" width="56" height="56" viewBox="0 0 56 56">
  <rect id="Прямоугольник_1962" data-name="Прямоугольник 1962" width="56" height="56" fill="none"/>
  <g id="Сгруппировать_1182" data-name="Сгруппировать 1182" transform="translate(4.098 6.977)">
    <g id="Сгруппировать_1180" data-name="Сгруппировать 1180" transform="translate(0 13.86)">
      <path id="Stroke_1-149" data-name="Stroke 1-149" d="M33.81,15.44h-28" transform="translate(-5.81 -8.627)" fill="none" stroke="#8a8a8e" stroke-linecap="round" stroke-linejoin="round" stroke-width="2.5"/>
      <path id="Stroke_3-123" data-name="Stroke 3-123" d="M14.88,12.52l6.837,6.813-6.837,6.79" transform="translate(6.283 -12.52)" fill="none" stroke="#8a8a8e" stroke-linecap="round" stroke-linejoin="round" stroke-width="2.5"/>
    </g>
    <g id="Сгруппировать_1181" data-name="Сгруппировать 1181" transform="translate(3.471)">
      <path id="Контур_432" data-name="Контур 432" d="M15.306,34.207l13.253,14a1.283,1.283,0,0,0,.933.42,1.237,1.237,0,0,0,.933-.42L47.95,29.54a14,14,0,0,0,0-18.923,12.04,12.04,0,0,0-17.78,0l-.677.7-.747-.817a12.04,12.04,0,0,0-17.78,0A13.627,13.627,0,0,0,7.3,20.184" transform="translate(-7.298 -6.58)" fill="none" stroke="#000" stroke-linecap="round" stroke-linejoin="round" stroke-width="2.5"/>
      <path id="Контур_435" data-name="Контур 435" d="M21.14,9.66a6.51,6.51,0,0,1,4.48,5.647A6.51,6.51,0,0,0,21.14,9.66Z" transform="translate(11.159 -2.473)" fill="none" stroke="#8a8a8e" stroke-linecap="round" stroke-linejoin="round" stroke-width="2.5"/>
    </g>
  </g>
</svg>
