<svg xmlns="http://www.w3.org/2000/svg" width="57.705" height="56" viewBox="0 0 57.705 56">
  <g id="Иконка_Лайки_" data-name="Иконка &quot;Лайки&quot;" transform="translate(0.852)">
    <rect id="Прямоугольник_1963" data-name="Прямоугольник 1963" width="56" height="56" fill="none"/>
    <g id="Монтажная_область_5_копия" data-name="Монтажная область 5 копия" transform="translate(0.398 6.895)">
      <path id="Контур_433" data-name="Контур 433" d="M26.564,48.5a1.213,1.213,0,0,1-.933-.4L8.014,29.434a14,14,0,0,1,0-18.923,12.04,12.04,0,0,1,17.78,0l.77.817.653-.7a12.04,12.04,0,0,1,17.78,0A14,14,0,0,1,45,29.55L27.474,48.217a1.307,1.307,0,0,1-.91.28Z" transform="translate(-4.332 -6.59)" fill="none" stroke="#000" stroke-linecap="round" stroke-linejoin="round" stroke-width="2.5"/>
      <path id="Stroke_3-135" data-name="Stroke 3-135" d="M18.19,9.6a6.44,6.44,0,0,1,4.457,5.6" transform="translate(14.145 -2.576)" fill="none" stroke="#8a8a8e" stroke-linecap="round" stroke-linejoin="round" stroke-width="2.5" style="isolation: isolate"/>
      <path id="Контур_434" data-name="Контур 434" d="M19.33,37.757l3.9,4.153a1,1,0,0,0,.7.3.91.91,0,0,0,.7-.3l13.183-14a10.5,10.5,0,0,0,0-14.21,9.707,9.707,0,0,0-3.01-2.17" transform="translate(14.626 -0.003)" fill="none" stroke="#8a8a8e" stroke-linecap="round" stroke-linejoin="round" stroke-width="2.5"/>
    </g>
  </g>
</svg>
