<svg xmlns="http://www.w3.org/2000/svg" width="57.482" height="56" viewBox="0 0 57.482 56">
  <g id="Иконка_Карточки_" data-name="Иконка &quot;Карточки&quot;" transform="translate(0.755)">
    <g id="Иконка_Лучшее_" data-name="Иконка &quot;Лучшее&quot;">
      <g id="Сгруппировать_1077" data-name="Сгруппировать 1077" transform="translate(0.523 6.498)">
        <path id="Контур_556" data-name="Контур 556" d="M9.917,0H21.233A9.917,9.917,0,0,1,31.15,9.917v23.17A9.917,9.917,0,0,1,21.233,43H9.917A9.917,9.917,0,0,1,0,33.087V9.917A9.917,9.917,0,0,1,9.917,0Z" transform="translate(23.804 0)" fill="none" stroke="#000" stroke-linecap="round" stroke-width="2.5"/>
        <g id="Сгруппировать_1076" data-name="Сгруппировать 1076" transform="translate(0 2.229)">
          <path id="Контур_389" data-name="Контур 389" d="M23.746,6.666a9.87,9.87,0,0,0-7,1.1l-7.187,4.2A9.893,9.893,0,0,0,5.943,25.5l9.543,16.567a9.94,9.94,0,0,0,9.73,4.877" transform="translate(-4.608 -6.446)" fill="none" stroke="gray" stroke-linecap="round" stroke-linejoin="round" stroke-width="2.5"/>
        </g>
      </g>
      <rect id="Прямоугольник_1902" data-name="Прямоугольник 1902" width="56" height="56" fill="none"/>
    </g>
    <path id="Контур_494" data-name="Контур 494" d="M7.474,15.844a4.511,4.511,0,0,0,4.84-4.6v-.018A4.143,4.143,0,0,0,8.085,6.884,3.189,3.189,0,0,0,5.277,8.3H5.122l.365-4h6.061V2.363H3.655l-.638,7.7H5.031a2.584,2.584,0,0,1,.611-.747A2.7,2.7,0,0,1,7.5,8.661a2.491,2.491,0,0,1,2.579,2.607v.018a2.5,2.5,0,0,1-2.6,2.634,2.425,2.425,0,0,1-2.516-1.932l-.009-.064H2.789l.009.118C2.971,14.2,4.785,15.844,7.474,15.844Zm6.581-.328H16.5l2.033-3.464h.155l2.042,3.464h2.552l-3.254-5.04,3.217-4.922H20.754L18.785,9.008H18.63L16.652,5.553H14.027l3.254,5.022Z" transform="translate(27.225 18.395)" fill="gray"/>
  </g>
</svg>
