<svg id="Иконка_Мегафон_" data-name="Иконка &quot;Мегафон&quot;" xmlns="http://www.w3.org/2000/svg" width="56" height="56" viewBox="0 0 56 56">
  <g id="Монтажная_область_5_копия_3" data-name="Монтажная область 5 копия 3" transform="translate(3.832 3.968)">
    <path id="Контур_423" data-name="Контур 423" d="M21.1,24.877V10.527H13.941a7.187,7.187,0,1,0,0,14.35Z" transform="translate(-6.345 1.603)" fill="none" stroke="#8a8a8e" stroke-linecap="round" stroke-linejoin="round" stroke-width="2.5"/>
    <path id="Контур_424" data-name="Контур 424" d="M39.64,7.015a1.4,1.4,0,0,0-.537,0L15.77,14.738V30.3" transform="translate(6.223 -3.099)" fill="none" stroke="#000" stroke-linecap="round" stroke-linejoin="round" stroke-width="2.5"/>
    <path id="Контур_425" data-name="Контур 425" d="M19.27,28.207,34.437,33.2a1.983,1.983,0,0,0,1.727-.49,2.52,2.52,0,0,0,.817-1.867V10.52" transform="translate(10.889 1.609)" fill="none" stroke="#000" stroke-linecap="round" stroke-linejoin="round" stroke-width="2.5"/>
    <path id="Контур_426" data-name="Контур 426" d="M11.66,26.663a2.333,2.333,0,0,0,2.333-2.333" transform="translate(0.743 20.023)" fill="none" stroke="#000" stroke-linecap="round" stroke-linejoin="round" stroke-width="2.5"/>
    <path id="Контур_427" data-name="Контур 427" d="M16.56,21.6a3.873,3.873,0,0,0-7.21,1.96v4.667" transform="translate(-2.337 13.84)" fill="none" stroke="#000" stroke-linecap="round" stroke-linejoin="round" stroke-width="2.5"/>
    <path id="Stroke_5-78" data-name="Stroke 5-78" d="M7.64,54.246l11.2-11.225L39.449,22.412,55.976,5.91" transform="translate(-6.105 -5.91)" fill="none" stroke="#8a8a8e" stroke-linecap="round" stroke-linejoin="round" stroke-width="2.5"/>
  </g>
  <rect id="Прямоугольник_1960" data-name="Прямоугольник 1960" width="56" height="56" fill="none"/>
</svg>
