<svg xmlns="http://www.w3.org/2000/svg" width="40" height="40" viewBox="0 0 40 40">
  <g id="Сгруппировать_2027" data-name="Сгруппировать 2027" transform="translate(-12842.92 -6869.555)">
    <rect id="Прямоугольник_2215" data-name="Прямоугольник 2215" width="40" height="40" transform="translate(12842.92 6869.555)" fill="none"/>
    <g id="instagram-seeklogo.com" transform="translate(12846.253 6872.888)">
      <path id="Контур_554" data-name="Контур 554" d="M16.93,3.051c4.521,0,5.056.017,6.841.1a9.371,9.371,0,0,1,3.144.583A5.246,5.246,0,0,1,28.862,5a5.245,5.245,0,0,1,1.266,1.947,9.369,9.369,0,0,1,.583,3.144c.081,1.785.1,2.321.1,6.841s-.017,5.056-.1,6.841a9.369,9.369,0,0,1-.583,3.144,5.606,5.606,0,0,1-3.213,3.213,9.369,9.369,0,0,1-3.144.583c-1.785.081-2.32.1-6.841.1s-5.056-.017-6.841-.1a9.368,9.368,0,0,1-3.144-.583A5.245,5.245,0,0,1,5,28.862a5.245,5.245,0,0,1-1.266-1.947,9.369,9.369,0,0,1-.583-3.144c-.081-1.785-.1-2.321-.1-6.841s.017-5.056.1-6.841a9.369,9.369,0,0,1,.583-3.144A5.245,5.245,0,0,1,5,5,5.246,5.246,0,0,1,6.945,3.732a9.37,9.37,0,0,1,3.144-.583c1.785-.081,2.321-.1,6.841-.1M16.93,0c-4.6,0-5.175.019-6.98.1A12.427,12.427,0,0,0,5.84.889a8.3,8.3,0,0,0-3,1.953,8.3,8.3,0,0,0-1.953,3A12.427,12.427,0,0,0,.1,9.95C.019,11.756,0,12.332,0,16.93s.019,5.175.1,6.98a12.427,12.427,0,0,0,.787,4.11,8.3,8.3,0,0,0,1.953,3,8.3,8.3,0,0,0,3,1.953,12.427,12.427,0,0,0,4.11.787c1.806.082,2.382.1,6.98.1s5.175-.019,6.98-.1a12.427,12.427,0,0,0,4.11-.787,8.657,8.657,0,0,0,4.951-4.951,12.427,12.427,0,0,0,.787-4.11c.082-1.806.1-2.382.1-6.98s-.019-5.175-.1-6.98a12.427,12.427,0,0,0-.787-4.11,8.3,8.3,0,0,0-1.953-3,8.3,8.3,0,0,0-3-1.953A12.427,12.427,0,0,0,23.911.1C22.1.019,21.528,0,16.93,0Zm0,8.236a8.694,8.694,0,1,0,8.694,8.694A8.694,8.694,0,0,0,16.93,8.236Zm0,14.338a5.644,5.644,0,1,1,5.644-5.644A5.644,5.644,0,0,1,16.93,22.574ZM28,7.893a2.032,2.032,0,1,1-2.032-2.032A2.032,2.032,0,0,1,28,7.893Z" transform="translate(0)"/>
    </g>
  </g>
</svg>
