<svg xmlns="http://www.w3.org/2000/svg" xmlns:xlink="http://www.w3.org/1999/xlink" width="636.869" height="354.107" viewBox="0 0 636.869 354.107">
  <defs>
    <filter id="Прямоугольник_2188" x="0.869" y="1.107" width="636" height="353" filterUnits="userSpaceOnUse">
      <feOffset dx="5" dy="15" input="SourceAlpha"/>
      <feGaussianBlur stdDeviation="10" result="blur"/>
      <feFlood flood-opacity="0.161"/>
      <feComposite operator="in" in2="blur"/>
      <feComposite in="SourceGraphic"/>
    </filter>
  </defs>
  <g id="Сгруппировать_2026" data-name="Сгруппировать 2026" transform="translate(-10651.131 -4840.893)">
    <g id="Сгруппировать_1604" data-name="Сгруппировать 1604" transform="translate(9696 741)">
      <g transform="matrix(1, 0, 0, 1, 955.13, 4099.89)" filter="url(#Прямоугольник_2188)">
        <rect id="Прямоугольник_2188-2" data-name="Прямоугольник 2188" width="293" height="576" rx="32" transform="translate(25.87 309.11) rotate(-90)" fill="#7d7af6"/>
      </g>
    </g>
    <g id="Сгруппировать_1592" data-name="Сгруппировать 1592" transform="translate(9622.08 825.587)">
      <path id="Контур_583" data-name="Контур 583" d="M30.78,53.9a16.84,16.84,0,0,1,7.627,6.454,18.536,18.536,0,0,1,2.738,10.17q0,8.41-5.28,13.592a18.46,18.46,0,0,1-13.495,5.183,18.6,18.6,0,0,1-13.592-5.28A18.1,18.1,0,0,1,3.4,70.52,32.147,32.147,0,0,1,4.378,62.7a88.334,88.334,0,0,1,4.3-11.734L20.024,22.8H39.385Zm46.155,0a16.84,16.84,0,0,1,7.627,6.454A18.536,18.536,0,0,1,87.3,70.52q0,8.41-5.28,13.592a18.46,18.46,0,0,1-13.495,5.183,18.6,18.6,0,0,1-13.592-5.28A18.1,18.1,0,0,1,49.555,70.52a32.147,32.147,0,0,1,.978-7.823,88.334,88.334,0,0,1,4.3-11.734L66.179,22.8H85.541Z" transform="translate(1569.489 3992.505)" fill="#ffc700"/>
      <path id="Контур_584" data-name="Контур 584" d="M27.38,31.1a16.84,16.84,0,0,1,7.627,6.454,18.536,18.536,0,0,1,2.738,10.17q0,8.41-5.28,13.592a18.46,18.46,0,0,1-13.495,5.183,18.6,18.6,0,0,1-13.592-5.28A18.1,18.1,0,0,1,0,47.72,32.147,32.147,0,0,1,.978,39.9a88.334,88.334,0,0,1,4.3-11.734L16.624,0H35.985Zm46.155,0a16.84,16.84,0,0,1,7.627,6.454A18.536,18.536,0,0,1,83.9,47.72q0,8.41-5.28,13.592a18.46,18.46,0,0,1-13.495,5.183,18.6,18.6,0,0,1-13.592-5.28A18.1,18.1,0,0,1,46.155,47.72a32.147,32.147,0,0,1,.978-7.823,88.334,88.334,0,0,1,4.3-11.734L62.779,0H82.141Z" transform="translate(1112.952 4339.521) rotate(180)" fill="#ffc700"/>
    </g>
  </g>
</svg>
