<svg xmlns="http://www.w3.org/2000/svg" width="40" height="40" viewBox="0 0 40 40">
  <g id="Сгруппировать_2028" data-name="Сгруппировать 2028" transform="translate(-12922.92 -6869.555)">
    <rect id="Прямоугольник_2216" data-name="Прямоугольник 2216" width="40" height="40" transform="translate(12922.92 6869.555)" fill="none"/>
    <g id="Сгруппировать_1582" data-name="Сгруппировать 1582" transform="translate(12929.018 6874.151)">
      <g id="Сгруппировать_1584" data-name="Сгруппировать 1584" transform="translate(0 0)">
        <path id="Cib-tiktok__CoreUI_Icons_v1.0.0_" data-name="Cib-tiktok_(CoreUI_Icons_v1.0.0)" d="M16.915.026C18.618,0,20.311.016,22,0a8.1,8.1,0,0,0,2.277,5.429,9.188,9.188,0,0,0,5.516,2.327V13a13.822,13.822,0,0,1-5.465-1.26,15.813,15.813,0,0,1-2.109-1.21c-.009,3.8.016,7.6-.024,11.386a9.9,9.9,0,0,1-1.76,5.128,9.687,9.687,0,0,1-7.69,4.173,9.468,9.468,0,0,1-5.306-1.336,9.8,9.8,0,0,1-4.747-7.431c-.031-.651-.042-1.3-.016-1.936a9.8,9.8,0,0,1,11.359-8.7c.026,1.927-.051,3.853-.051,5.78a4.476,4.476,0,0,0-5.7,2.76,5.172,5.172,0,0,0-.177,2.093,4.441,4.441,0,0,0,8.157,1.642A3.068,3.068,0,0,0,16.8,22.7c.128-2.327.077-4.645.093-6.973.011-5.245-.016-10.476.024-15.7Z" transform="translate(-2.664)"/>
      </g>
    </g>
  </g>
</svg>
