<svg xmlns="http://www.w3.org/2000/svg" width="40" height="40" viewBox="0 0 40 40">
  <g id="Сгруппировать_2029" data-name="Сгруппировать 2029" transform="translate(-12763.213 -6869.555)">
    <rect id="Прямоугольник_2217" data-name="Прямоугольник 2217" width="40" height="40" transform="translate(12763.213 6869.555)" fill="none"/>
    <g id="Livello_x0020_1" transform="translate(12763.507 6873.546)">
      <path id="Контур_553" data-name="Контур 553" d="M37.414,3.793a16.222,16.222,0,0,1-4.645,1.27A8.086,8.086,0,0,0,36.32.588a16.2,16.2,0,0,1-5.133,1.964A8.091,8.091,0,0,0,17.2,8.085a7.885,7.885,0,0,0,.212,1.84A22.94,22.94,0,0,1,.746,1.476a8.089,8.089,0,0,0,2.5,10.79A8.067,8.067,0,0,1-.412,11.254v.1A8.088,8.088,0,0,0,6.073,19.28a8.19,8.19,0,0,1-2.129.282,8.106,8.106,0,0,1-1.523-.147,8.1,8.1,0,0,0,7.55,5.615A16.217,16.217,0,0,1-.071,28.494,17.422,17.422,0,0,1-2,28.383a22.882,22.882,0,0,0,12.4,3.634c14.87,0,23-12.319,23-23,0-.353-.006-.7-.024-1.047a16.353,16.353,0,0,0,4.034-4.187Z" transform="translate(2 0)" fill-rule="evenodd"/>
    </g>
  </g>
</svg>
